<?xml version="1.0" encoding="utf-8"?>
<!-- Svg Vector Icons : http://www.onlinewebfonts.com/icon -->
<!DOCTYPE svg PUBLIC "-//W3C//DTD SVG 1.1//EN" "http://www.w3.org/Graphics/SVG/1.1/DTD/svg11.dtd">
<svg version="1.1" xmlns="http://www.w3.org/2000/svg" xmlns:xlink="http://www.w3.org/1999/xlink" x="0px" y="0px" viewBox="0 0 1000 1000" enable-background="new 0 0 1000 1000" xml:space="preserve">
<metadata> Svg Vector Icons : http://www.onlinewebfonts.com/icon </metadata>
<g><g transform="translate(0.000000,511.000000) scale(0.100000,-0.100000)"><path d="M4845.5,4997.6c-301.2-53.7-539.2-211.1-708-468.2c-82.5-124.7-151.6-322.3-151.6-431.7c0-117-17.3-147.7-111.3-191.9c-161.2-78.7-450.9-282.1-614-433.6c-356.9-333.9-602.5-708-759.8-1158.9c-124.7-355-145.8-506.5-165-1124.4c-21.1-671.6-61.4-970.9-201.5-1469.7c-124.7-445.1-255.2-757.9-654.3-1571.4c-276.3-562.2-335.8-702.3-349.2-800.1c-48-358.8,130.5-696.5,450.9-853.8l130.5-63.3l932.5-5.8l930.6-5.8l34.5-138.2c115.1-481.6,508.5-896,988.1-1038c165-48,648.5-42.2,819.3,9.6c449,138.1,807.8,493.1,945.9,940.2c19.2,67.2,42.2,145.8,48,174.6l11.5,51.8l936.3,5.8l934.4,5.8l126.6,61.4c159.3,78.7,307,226.4,385.7,385.7c53.7,107.5,63.3,149.7,69.1,301.2c5.8,134.3,0,203.4-24.9,280.1c-19.2,57.6-157.3,349.2-307,650.4C8128.5-1061.7,7965.4-664.5,7833-159.9c-107.4,408.7-142,665.8-172.7,1262.5c-15.3,301.2-42.2,625.5-57.6,719.5c-170.8,974.7-677.3,1723-1425.6,2099.1c-147.8,76.7-157.4,84.4-157.4,142c0,174.6-117,447.1-262.9,608.2C5536.2,4917.1,5154.4,5053.3,4845.5,4997.6z M5219.6,4556.3c142-53.7,249.4-151.6,318.5-291.7c32.6-65.2,57.6-119,55.6-122.8c-3.8-1.9-49.9,5.8-101.7,15.4c-134.3,30.7-817.4,28.8-957.4,0c-63.3-11.5-119-19.2-122.8-13.4c-19.2,19.2,65.2,174.6,138.1,255.2c74.8,80.6,178.5,145.8,280.1,178.4C4924.2,4606.2,5114.1,4594.7,5219.6,4556.3z M5425,3740.9c402.9-71,738.7-237.9,1034.2-518.1c500.8-473.9,786.7-1224.1,788.6-2072.2c1.9-754,163.1-1502.4,498.9-2319.7c57.5-136.2,243.7-533.4,416.4-880.7c260.9-527.6,312.8-646.6,312.8-717.6c0-159.2-94-305.1-239.8-372.2c-72.9-34.6-201.5-36.5-3233.1-36.5c-3031.6,0-3160.1,1.9-3233.1,36.5c-145.8,67.2-239.8,213-239.8,372.2c0,67.2,55.6,195.7,314.7,725.3c416.4,848.1,596.7,1300.9,727.2,1830.4c124.7,495,145.8,673.5,166.9,1314.3c17.3,591,44.1,796.3,145.8,1078.3c282,784.8,947.8,1387.2,1715.3,1550.3C4807.1,3775.4,5200.5,3781.2,5425,3740.9z M5992.9-3630.9c-32.6-136.2-149.7-339.6-262.9-456.6c-495-516.2-1358.5-370.3-1655.9,280.1c-26.9,57.6-55.6,134.3-61.4,166.9l-11.5,61.4h1001.6h1001.6L5992.9-3630.9z"/><path d="M4619.1,3337.9c-627.4-128.6-1078.3-556.4-1306.7-1241.4c-97.9-291.6-130.5-504.6-151.6-984.3c-30.7-692.7-90.2-1086-251.4-1650.1c-136.2-473.9-320.4-922.9-644.7-1579.1c-176.5-355-201.5-416.4-191.9-475.8c15.4-86.3,55.6-134.3,140.1-161.2c53.7-19.2,78.7-15.3,138.1,13.4c63.3,30.7,88.3,69.1,257.1,399.1C3251-1080.9,3563.8,22.4,3563.8,1031.6c0,589,128.6,1080.2,374.2,1423.7c214.9,303.2,535.3,472,955.5,502.7c239.8,17.3,301.2,61.4,301.2,216.8c0,63.3-11.5,92.1-55.6,136.2c-53.7,53.7-63.3,55.6-226.4,53.7C4820.6,3364.8,4688.2,3351.4,4619.1,3337.9z"/></g></g>
</svg>